<svg version="1.0" xmlns="http://www.w3.org/2000/svg" viewBox="316 174 469 683" preserveAspectRatio="xMidYMid meet">
  <g transform="translate(0.000000,1024.000000) scale(0.100000,-0.100000)" fill="#924b10" stroke="none">
    <path d="M7419 8494c-244-130-527-280-629-334-102-54-471-250-820-436-349-185-705-374-790-419-208-111-421-223-1375-724-265-140-307-166-396-248-101-94-182-232-225-383-18-62-19-153-22-2148-1-1145 1-2103 5-2127l8-45 278 150c153 82 298 163 322 180 113 78 220 241 244 374 8 41 11 491 11 1437 0 1540-4 1456 71 1601 48 91 154 210 238 267 31 21 189 107 351 191 162 84 345 178 405 210 456 238 581 304 735 385 96 51 238 125 315 165 77 40 340 179 585 308 245 129 544 286 665 350 273 143 290 154 312 194 9 19 22 82 29 143 7 61 27 229 44 375 43 363 46 391 69 589 12 96 20 176 18 177-2 2-203-103-448-232Z"/>
    <path d="M7035 6536c-55-29-318-167-585-306-519-270-911-476-1345-705-148-78-312-164-362-190-127-65-209-141-254-237l-34-73-3-562c-1-310 0-563 2-563 13 0 2354 1224 2434 1272 56 34 78 88 97 233 45 352 69 537 111 833 25 177 44 329 42 337-2 11-29 1-103-39Z"/>
    <path d="M5925 4135l-410-213-3-596-2-596 52 29c29 15 143 75 253 132 226 117 280 161 334 271 33 67 32 63 116 643 19 132 44 303 55 380 11 77 19 145 18 152-2 7-173-77-413-202Z"/>
    <path d="M4955 3642c-71-38-214-112-317-166l-188-98v-563-564l133 70c72 38 216 113 319 167l187 97 3 563c2 309 1 562-2 562-3 0-63-31-135-68Z"/>
  </g>
</svg>
